<?xml version="1.0" standalone="no"?>
<!DOCTYPE svg PUBLIC "-//W3C//DTD SVG 20010904//EN"
 "http://www.w3.org/TR/2001/REC-SVG-20010904/DTD/svg10.dtd">
<svg version="1.0" xmlns="http://www.w3.org/2000/svg"
 width="2560.000000pt" height="1440.000000pt" viewBox="0 0 2560.000000 1440.000000"
 preserveAspectRatio="xMidYMid meet">

<g transform="translate(0.000000,1440.000000) scale(0.100000,-0.100000)"
fill="#000000" stroke="none">
<path d="M0 7200 l0 -7200 6113 1 c3361 1 6087 5 6057 9 -30 5 -82 9 -115 9
-52 1 -58 3 -43 15 20 14 14 26 -13 26 -9 0 -19 9 -22 20 -5 21 -31 27 -42 10
-3 -6 2 -10 11 -10 14 0 15 -3 6 -12 -18 -18 -34 9 -28 44 4 19 0 30 -12 37
-15 9 -15 10 0 11 24 0 11 40 -13 40 -19 0 -24 -20 -19 -77 1 -16 -4 -23 -16
-23 -14 0 -16 7 -10 41 4 26 2 46 -5 55 -14 17 -13 152 1 169 5 6 5 17 0 25
-6 8 -10 28 -10 43 0 17 -4 26 -10 22 -6 -4 -8 -10 -5 -14 8 -14 -31 -42 -48
-35 -9 3 -17 15 -19 27 -4 29 -28 34 -28 6 0 -12 -11 -37 -25 -55 -27 -35 -33
-64 -12 -64 6 0 -1 -7 -16 -15 -15 -8 -34 -12 -41 -9 -8 3 -20 -4 -28 -15 -13
-19 -19 -20 -49 -9 -19 6 -37 16 -40 21 -9 13 -76 -10 -83 -28 -3 -8 -3 -22 1
-30 3 -9 -2 -24 -10 -33 -9 -10 -15 -27 -15 -39 1 -11 -11 -37 -27 -57 l-30
-36 -89 4 c-48 2 -84 1 -78 -3 6 -3 -27 -5 -71 -3 -57 2 -77 0 -67 -7 8 -5 12
-12 10 -15 -6 -5 -92 15 -100 24 -6 6 -49 26 -72 34 -10 3 -20 0 -24 -5 -9
-15 -45 47 -38 65 3 9 0 102 -7 208 -7 106 -12 207 -12 225 -1 18 -4 30 -9 27
-4 -3 -8 0 -8 5 0 6 6 11 13 11 10 0 10 17 3 79 -9 79 -10 80 -40 84 l-31 4
32 1 c31 2 32 4 38 57 4 30 4 67 0 83 -17 66 -17 112 -1 137 9 14 14 30 11 35
-3 5 -1 11 5 15 6 4 8 10 5 15 -3 5 -1 12 5 15 6 4 8 15 5 26 -4 10 -2 19 3
19 14 0 21 59 8 64 -6 2 -3 5 6 5 12 1 18 9 18 23 -1 140 17 335 36 382 10 27
-18 16 -32 -12 -21 -43 -27 -36 -21 28 l6 65 -17 -47 c-9 -26 -20 -50 -24 -54
-5 -4 -8 -18 -8 -31 0 -14 -4 -21 -10 -18 -6 3 -13 -1 -17 -11 -5 -13 -9 -9
-18 17 -9 28 -9 37 3 52 9 9 12 20 7 25 -4 4 -10 1 -12 -5 -3 -7 -8 -13 -13
-13 -13 0 -5 51 10 60 7 4 10 12 6 18 -3 5 11 43 31 83 20 41 37 76 38 79 3
10 40 85 45 90 6 6 30 47 49 85 8 17 29 53 48 82 18 28 40 69 49 91 10 28 20
39 30 35 10 -4 12 0 7 13 -5 14 -3 16 11 11 13 -5 17 -3 13 7 -4 9 2 17 14 21
11 4 18 12 16 19 -3 8 3 12 17 12 14 -1 21 5 21 18 0 22 20 33 30 16 9 -14 34
17 35 43 0 9 4 17 9 17 5 0 11 12 13 28 2 19 8 27 21 26 11 -1 17 6 18 20 1
18 2 17 13 -8 l13 -29 2 44 c1 24 2 54 3 67 0 12 6 22 13 22 9 0 10 -11 5 -42
-6 -29 -5 -45 3 -50 8 -5 13 0 15 12 2 11 7 20 11 20 4 0 7 12 6 27 0 39 24
41 32 3 l6 -33 18 24 c9 13 15 27 12 31 -2 5 14 5 37 2 41 -7 42 -6 31 14 -15
28 -14 32 9 32 11 0 20 5 20 11 0 29 29 -16 32 -49 3 -30 5 -33 12 -17 4 11
12 29 16 40 5 11 14 35 22 53 7 17 18 32 24 32 18 0 47 -37 35 -45 -14 -8 -14
-55 -1 -55 6 0 10 8 10 18 1 15 2 15 12 -2 6 -11 8 -39 5 -68 l-6 -49 35 7
c26 5 33 3 31 -7 -2 -8 -2 -11 0 -6 8 12 24 8 51 -14 15 -11 28 -16 30 -10 2
5 10 7 19 4 9 -4 22 2 31 13 10 13 13 14 9 3 -3 -9 -1 -22 3 -29 5 -8 5 -21 1
-29 -9 -18 -4 -41 10 -41 5 0 9 9 9 20 0 14 5 18 16 13 14 -5 16 -2 10 20 -3
14 -2 28 3 31 5 3 8 -2 7 -11 0 -10 7 -19 17 -21 12 -2 17 3 17 17 0 12 5 21
11 21 6 0 8 -11 5 -27 -3 -16 -1 -35 5 -43 8 -12 9 -9 4 10 -5 21 -4 22 5 7 6
-9 9 -21 6 -25 -5 -9 -18 -115 -18 -150 0 -13 2 -26 6 -29 10 -10 35 30 36 57
1 17 7 8 20 -30 11 -34 18 -46 19 -32 1 24 32 43 39 24 2 -7 8 -10 13 -7 5 4
6 -1 3 -9 -3 -9 -1 -16 6 -16 6 0 9 -4 5 -9 -3 -6 3 -15 14 -20 14 -8 22 -7
31 4 15 18 49 19 72 1 12 -9 14 -16 7 -23 -11 -11 -2 -63 12 -63 5 0 9 11 9
25 0 14 5 25 10 25 6 0 10 -12 10 -27 0 -35 12 -22 16 19 2 17 7 34 12 37 4 3
7 13 7 21 0 8 10 16 23 18 22 3 22 2 22 -105 0 -99 22 -322 36 -365 17 -54 40
10 49 137 4 50 13 123 21 163 8 41 14 76 14 78 0 2 5 4 11 4 6 0 8 -8 4 -19
-6 -21 10 -38 20 -21 5 7 12 5 20 -7 10 -14 16 -15 27 -5 18 15 28 6 29 -27 1
-21 2 -22 6 -6 8 31 43 48 43 21 0 -8 -6 -17 -13 -20 -9 -5 -9 -7 1 -12 6 -3
9 -11 5 -17 -4 -7 0 -8 11 -4 10 4 20 7 22 7 2 0 4 11 4 25 0 29 8 32 26 8 8
-11 13 -13 14 -5 0 24 20 12 20 -13 0 -14 5 -25 10 -25 6 0 10 11 10 24 0 19
8 28 35 37 33 12 47 29 25 29 -15 0 -12 17 6 45 l16 24 24 -24 c31 -31 64 -33
64 -5 0 26 30 26 37 0 8 -30 19 -24 28 13 l8 32 7 -40 c26 -139 33 -164 41
-159 5 3 9 13 9 24 0 10 7 21 16 24 15 6 15 43 -1 123 -4 23 -4 25 4 8 8 -17
10 -17 10 -3 1 9 6 20 13 24 7 4 8 3 4 -5 -9 -14 12 -43 25 -35 5 3 9 14 9 25
0 11 4 18 9 15 5 -4 12 0 14 6 4 10 6 10 6 1 1 -20 55 -15 73 7 10 11 30 22
45 25 58 12 78 21 78 35 1 16 26 15 36 -2 4 -6 15 -2 28 11 23 23 41 27 41 10
0 -6 15 -43 33 -82 l32 -70 5 34 c6 33 6 33 23 -26 43 -147 52 -170 55 -147 2
12 -4 61 -14 109 -16 82 -16 87 1 99 9 7 14 18 10 23 -13 22 4 48 29 44 17 -4
27 1 35 15 8 14 17 19 32 15 21 -6 22 -3 16 38 -3 24 -3 36 0 27 5 -21 19 -24
26 -5 2 6 8 8 13 4 5 -4 2 -12 -5 -16 -10 -7 -11 -13 -2 -27 6 -11 11 -13 11
-6 1 40 35 -23 146 -266 21 -46 46 -88 55 -93 15 -8 17 -6 9 19 -4 15 -13 40
-19 56 -6 16 -9 31 -7 34 3 3 10 -7 15 -22 10 -24 31 -37 31 -17 0 9 -21 63
-49 126 -10 22 -24 58 -31 80 -7 22 -16 45 -19 50 -4 6 -15 37 -25 70 -10 33
-22 69 -26 80 -14 34 -18 65 -10 65 5 0 12 -9 15 -20 9 -29 22 -25 30 10 5 21
13 30 26 30 14 0 21 9 26 30 6 33 24 51 31 32 6 -20 36 -13 56 13 10 14 23 25
29 25 6 0 19 8 29 17 14 13 21 14 30 5 19 -19 25 -14 34 31 8 42 8 42 12 10 4
-36 22 -46 22 -13 0 11 4 20 9 20 5 0 12 8 14 18 2 9 3 4 1 -13 -1 -16 0 -24
3 -17 6 14 43 16 43 2 0 -5 5 -10 11 -10 7 0 9 10 5 25 -5 20 -3 25 13 25 11
0 23 -5 26 -11 5 -6 13 -3 22 10 16 24 33 19 33 -10 0 -10 7 -19 15 -19 8 0
15 5 15 10 0 16 40 12 46 -5 4 -8 12 -15 20 -15 17 0 18 17 2 23 -8 3 -6 6 4
6 9 1 21 -6 26 -15 5 -8 19 -21 32 -27 13 -7 28 -21 34 -32 6 -11 17 -24 24
-28 6 -4 12 -14 12 -21 0 -8 7 -16 15 -20 8 -3 22 -22 32 -43 9 -21 24 -56 34
-78 10 -22 30 -69 46 -105 60 -142 142 -284 331 -575 64 -98 239 -333 316
-424 49 -57 68 -102 141 -321 31 -96 65 -195 75 -220 26 -65 80 -239 80 -260
0 -9 3 -20 7 -24 10 -10 34 -103 36 -136 1 -14 6 -28 12 -32 6 -5 6 -8 -2 -8
-15 0 -18 -27 -4 -32 4 -2 11 -12 15 -23 5 -16 1 -21 -14 -22 -11 -1 -18 2
-15 6 2 5 -3 15 -12 22 -15 13 -16 11 -9 -16 4 -16 26 -77 48 -135 22 -58 45
-124 51 -147 l10 -43 64 0 c36 0 62 4 59 9 -4 5 -20 67 -36 138 -16 70 -43
178 -59 238 -66 248 -81 308 -81 319 1 21 120 -174 185 -302 78 -155 155 -337
158 -374 l2 -28 4748 0 4747 0 0 7200 0 7200 -12800 0 -12800 0 0 -7200z
m12840 6271 c25 -5 79 -14 120 -20 41 -7 109 -23 150 -36 41 -14 109 -34 150
-46 76 -21 171 -63 200 -87 8 -7 45 -35 81 -61 119 -85 198 -162 283 -275 117
-157 116 -154 113 -214 -1 -29 -5 -52 -9 -52 -4 0 -7 -12 -7 -27 2 -50 -19
-93 -44 -93 -5 0 -33 -25 -62 -55 -29 -30 -55 -52 -57 -49 -3 2 -11 -2 -18
-11 -11 -14 -40 -21 -40 -10 0 2 14 32 31 66 18 34 40 89 51 123 22 69 37 256
21 256 -6 0 -14 -19 -18 -42 l-8 -43 -12 40 -12 40 -7 -42 c-4 -24 -13 -46
-19 -50 -6 -4 -8 0 -4 10 3 10 3 17 -2 17 -5 0 -18 -30 -31 -66 -12 -36 -29
-75 -38 -86 -10 -11 -27 -32 -40 -46 -12 -15 -37 -52 -55 -82 -21 -38 -33 -49
-35 -38 -2 10 12 44 31 75 19 32 42 82 51 112 18 60 21 197 6 221 -7 10 -10
-8 -10 -60 0 -84 -19 -169 -51 -232 -16 -31 -23 -38 -30 -27 -7 11 -9 11 -9 1
0 -7 -4 -10 -10 -7 -5 3 -10 0 -10 -8 0 -8 -6 -17 -14 -20 -11 -4 -9 4 6 29
11 18 25 31 31 27 5 -3 7 -1 3 5 -3 6 -1 30 5 54 9 31 9 58 2 93 -10 47 -11
48 -12 14 0 -20 -6 -50 -12 -68 -10 -27 -13 -30 -27 -19 -13 11 -15 10 -9 -4
3 -10 2 -18 -3 -18 -6 0 -10 5 -10 11 0 6 -13 -3 -29 -20 -16 -17 -36 -31 -44
-31 -9 0 -23 -10 -31 -22 -9 -13 -28 -22 -48 -24 -77 -6 -206 -3 -242 7 -35 9
-68 2 -38 -8 6 -3 10 -9 7 -14 -4 -5 0 -6 8 -3 8 3 18 1 21 -5 4 -5 28 -13 54
-17 72 -10 78 -17 33 -41 -25 -13 -43 -17 -49 -11 -8 8 -181 63 -240 76 -17 3
-21 9 -17 23 4 11 2 19 -4 19 -6 0 -11 -13 -11 -30 0 -16 -5 -30 -11 -30 -5 0
-7 5 -3 12 4 6 3 8 -4 5 -9 -6 -163 46 -187 63 -19 14 -185 99 -185 95 0 -2
10 -13 22 -25 15 -14 18 -20 7 -20 -12 0 -12 -2 0 -9 8 -5 21 -6 30 -3 14 5
14 4 1 -10 -9 -10 -19 -13 -24 -7 -6 5 -16 9 -24 9 -18 0 99 -80 160 -109 27
-13 51 -27 54 -32 7 -11 -118 -4 -210 12 -32 6 -60 8 -62 6 -5 -5 62 -47 74
-47 4 0 25 -9 47 -20 47 -24 40 -25 -44 -5 -76 18 -212 84 -260 125 -18 17
-36 30 -40 30 -3 0 -26 19 -50 41 -36 34 -43 38 -38 19 5 -18 2 -21 -14 -17
-10 3 -19 1 -19 -3 0 -25 126 -158 191 -202 23 -16 22 -16 -36 -13 -33 2 -49
1 -36 -2 13 -3 30 -10 36 -17 9 -9 -8 -11 -71 -10 -46 0 -87 3 -91 7 -3 4 -22
6 -42 6 l-36 -2 35 -7 c29 -6 24 -8 -32 -9 -55 -1 -66 -4 -62 -16 5 -12 -3
-15 -35 -15 -54 0 -52 -13 4 -28 37 -10 101 -52 78 -52 -4 0 2 -6 12 -14 16
-12 17 -16 6 -30 -12 -14 -10 -16 13 -16 14 0 26 5 26 11 0 6 9 8 23 4 20 -6
21 -5 5 8 -16 13 -14 15 20 25 54 16 256 24 289 11 l28 -10 -42 -40 c-42 -39
-73 -50 -73 -26 0 9 -2 9 -9 -1 -6 -10 -37 -15 -97 -17 -100 -4 -124 0 -124
21 0 8 -4 14 -10 14 -5 0 -9 -5 -7 -11 1 -6 -5 -14 -13 -16 -13 -4 -13 -3 0 6
12 9 10 11 -12 11 -14 0 -34 3 -43 6 -10 4 -15 2 -13 -7 2 -8 -7 -15 -19 -17
-13 -2 -23 -8 -23 -14 0 -6 -33 -7 -95 -3 -63 5 -95 4 -95 -3 0 -6 8 -13 18
-15 10 -3 6 -5 -10 -6 -21 -1 -28 4 -28 18 0 12 -12 23 -32 32 -81 32 -231
249 -173 249 9 0 14 -4 11 -9 -7 -11 67 -80 116 -108 39 -23 54 -17 43 17 -11
36 -13 90 -4 96 5 3 7 10 4 15 -4 5 -2 9 3 9 7 0 8 81 2 100 -1 3 -3 10 -4 15
0 6 -14 29 -30 53 -16 23 -26 45 -23 49 8 7 57 -43 58 -60 0 -8 2 -8 5 -1 3 6
-11 37 -31 69 -19 33 -41 74 -47 92 -7 18 -16 33 -21 33 -11 0 -1 -44 18 -83
8 -16 12 -41 9 -56 -4 -18 0 -33 10 -44 9 -8 16 -23 16 -32 0 -11 -8 -7 -27
16 -18 21 -26 41 -24 57 2 15 -1 22 -8 18 -6 -4 -11 -17 -12 -29 0 -18 -2 -17
-11 8 -14 39 -17 42 -28 25 -7 -12 -12 -12 -22 -2 -9 9 -9 12 0 12 8 0 10 9 6
28 l-6 27 21 -25 c24 -29 28 -15 5 18 -15 21 -15 25 1 42 11 12 13 19 5 22 -9
3 -8 14 4 42 9 21 13 42 10 47 -3 5 1 6 9 3 9 -3 20 10 33 38 10 24 24 49 31
56 7 7 13 19 13 25 0 7 -7 4 -14 -5 -7 -10 -18 -18 -24 -18 -19 0 -20 27 -1
41 10 7 19 19 19 26 0 7 3 13 8 13 4 0 25 18 48 40 45 42 134 97 134 81 0 -5
-9 -12 -19 -16 -23 -7 -49 -35 -33 -35 6 0 17 7 26 15 8 8 18 15 22 15 15 0
74 51 71 63 -4 19 200 113 318 146 61 17 166 39 235 50 132 20 371 26 450 12z
m-1310 -373 c0 -4 -10 -8 -22 -9 -13 0 -17 -3 -11 -6 10 -3 9 -10 -2 -27 -9
-13 -13 -30 -10 -38 4 -10 -11 -30 -41 -57 -26 -23 -44 -44 -40 -48 4 -4 11
-1 16 7 6 8 10 10 10 4 0 -6 -9 -19 -19 -28 -18 -17 -19 -17 -23 1 -2 13 -15
3 -49 -42 -50 -66 -65 -92 -105 -180 -15 -33 -31 -62 -34 -65 -11 -7 -30 -105
-30 -150 0 -22 -4 -40 -10 -40 -5 0 -10 -11 -10 -24 0 -14 -4 -27 -9 -30 -5
-4 -12 -41 -16 -84 -9 -114 -12 -127 -26 -153 -13 -23 -14 -21 -19 36 -4 47
-7 54 -12 35 -4 -14 -8 -42 -8 -63 0 -23 -4 -36 -10 -32 -5 3 -10 -3 -10 -14
0 -27 -45 -29 -59 -3 -19 36 -23 233 -7 354 14 107 27 158 73 303 17 54 57
117 94 152 28 25 141 103 151 103 3 0 35 16 70 36 34 21 79 45 98 55 36 18 70
21 70 7z m10 -118 c-6 -12 -14 -19 -17 -17 -2 3 1 15 7 27 6 12 14 19 17 17 2
-3 -1 -15 -7 -27z m-45 -70 c3 -6 -1 -7 -9 -4 -10 4 -16 1 -16 -7 0 -7 -3 -10
-6 -6 -7 7 4 27 16 27 5 0 12 -4 15 -10z m-35 -40 c0 -5 -2 -10 -4 -10 -3 0
-8 5 -11 10 -3 6 -1 10 4 10 6 0 11 -4 11 -10z m-80 -4 c0 -3 -4 -8 -10 -11
-5 -3 -10 -1 -10 4 0 6 5 11 10 11 6 0 10 -2 10 -4z m64 -21 c3 -8 1 -15 -3
-15 -5 0 -11 7 -15 15 -3 8 -1 15 3 15 5 0 11 -7 15 -15z m-66 -121 c-12 -12
-17 -13 -23 -3 -5 7 -4 10 2 6 6 -4 14 0 17 9 4 9 9 14 13 10 4 -3 0 -14 -9
-22z m-7 -24 c24 14 26 27 -15 -150 -10 -45 -11 -67 -4 -71 6 -4 8 -21 4 -43
-4 -21 -11 -34 -17 -30 -6 3 -8 17 -5 30 10 37 -12 29 -23 -8 -9 -32 -9 -32
-10 -5 -1 15 -5 27 -11 27 -5 0 -10 9 -10 21 0 11 3 18 8 16 4 -3 7 14 8 36 1
45 45 198 52 179 3 -9 9 -9 23 -2z m109 -34 c0 -3 -4 -8 -10 -11 -5 -3 -10 -1
-10 4 0 6 5 11 10 11 6 0 10 -2 10 -4z m2495 -35 c3 -5 1 -12 -5 -16 -5 -3
-10 1 -10 9 0 18 6 21 15 7z m-1470 -11 c3 -6 -1 -7 -9 -4 -18 7 -21 14 -7 14
6 0 13 -4 16 -10z m-370 -10 c3 -5 1 -10 -4 -10 -6 0 -11 5 -11 10 0 6 2 10 4
10 3 0 8 -4 11 -10z m740 -80 c13 -5 14 -9 5 -9 -8 0 -24 4 -35 9 -13 5 -14 9
-5 9 8 0 24 -4 35 -9z m338 3 c-7 -2 -21 -2 -30 0 -10 3 -4 5 12 5 17 0 24 -2
18 -5z m216 -51 c17 -12 27 -31 29 -52 2 -18 10 -39 17 -47 8 -7 12 -20 10
-28 -16 -51 -15 -49 -29 -29 -11 15 -17 16 -29 6 -8 -7 -22 -10 -31 -6 -11 4
-16 1 -16 -10 0 -8 -13 -22 -30 -31 -29 -15 -30 -15 -30 6 0 12 -11 41 -25 65
-24 40 -50 56 -132 80 -25 7 -12 31 25 47 59 25 63 26 141 22 53 -2 81 -9 100
-23z m-676 -230 c-6 -4 -15 -21 -19 -37 -4 -17 -36 -91 -72 -165 -123 -258
-144 -309 -121 -295 5 4 9 16 9 28 1 21 1 21 12 3 8 -15 8 -21 0 -24 -7 -2
-12 -10 -12 -18 0 -8 -6 -14 -12 -13 -33 4 -58 -2 -58 -14 0 -7 -15 -21 -32
-30 -82 -43 -156 -91 -185 -120 -50 -47 -40 -14 23 77 42 61 48 72 22 46 -73
-76 -149 -182 -143 -201 4 -13 1 -19 -8 -19 -8 0 -17 -8 -21 -17 -3 -10 -30
-47 -61 -83 -30 -36 -61 -79 -69 -96 -20 -40 -63 -83 -93 -90 -12 -4 -23 -10
-23 -14 0 -14 -95 -44 -149 -46 -30 -2 -57 -6 -60 -11 -3 -4 -10 -8 -16 -8
-24 -1 -82 -19 -102 -32 -40 -27 -15 21 45 86 78 83 122 136 122 149 0 19 52
72 107 109 30 19 91 77 135 127 45 50 99 107 120 126 22 19 51 56 66 81 44 76
190 295 222 332 104 123 152 157 227 158 32 1 72 5 88 9 41 10 73 12 58 2z
m-1144 -138 c3 -4 -5 -3 -18 1 -16 5 -21 4 -17 -4 4 -6 5 -11 2 -11 -6 0 -66
57 -66 63 0 5 91 -40 99 -49z m-165 -66 c-4 -6 -3 -8 3 -5 6 4 18 -10 27 -33
20 -49 20 -60 3 -35 -8 10 -19 15 -24 12 -17 -11 -30 14 -42 77 -6 33 -11 62
-11 65 0 3 11 -11 25 -32 14 -20 23 -42 19 -49z m2715 6 c100 -54 108 -62 200
-209 69 -110 88 -143 144 -245 57 -107 98 -161 199 -268 22 -24 37 -46 33 -50
-4 -4 -10 -1 -13 7 -3 10 -6 10 -12 1 -9 -14 -50 16 -50 37 0 7 -3 13 -8 13
-4 0 -13 13 -20 30 -8 16 -17 28 -21 27 -3 -1 -31 25 -61 58 -80 89 -186 193
-260 255 -36 30 -67 57 -70 60 -3 3 -32 27 -65 53 -33 26 -73 65 -90 86 -16
21 -49 61 -72 90 -48 59 -54 81 -20 81 12 0 29 5 37 10 28 18 64 10 149 -36z
m-2614 -74 c7 -22 21 -26 27 -9 3 8 10 6 20 -5 9 -9 22 -16 28 -16 6 0 8 -5 4
-11 -4 -8 1 -9 16 -4 14 4 20 3 16 -3 -3 -5 11 -8 37 -7 23 2 61 -1 84 -5 27
-5 64 -3 98 5 51 12 56 12 65 -6 9 -16 5 -22 -22 -39 -18 -11 -41 -19 -51 -16
-9 2 -15 0 -12 -4 3 -5 -3 -13 -13 -19 -20 -11 -91 1 -101 17 -3 5 -21 13 -40
17 -22 5 -31 4 -27 -3 4 -6 -2 -8 -16 -4 -12 3 -17 7 -10 10 9 3 8 7 -3 18 -7
8 -18 13 -22 12 -4 -1 -18 3 -30 10 -15 8 -23 9 -23 2 0 -5 8 -10 18 -11 11 0
12 -2 4 -6 -7 -3 -20 1 -28 8 -14 11 -13 15 8 32 22 17 22 18 1 8 -29 -15 -33
-14 -33 7 0 14 -2 15 -10 2 -11 -18 -16 -13 -25 28 -7 32 -6 33 13 23 12 -6
24 -20 27 -31z m564 16 c-16 -15 -79 -44 -79 -36 0 6 15 16 33 24 31 14 55 20
46 12z m-121 -73 c-29 -16 -35 -16 -41 0 -3 9 5 13 29 13 33 0 34 0 12 -13z
m-261 -69 c-3 -3 -12 -4 -19 -1 -8 3 -5 6 6 6 11 1 17 -2 13 -5z m187 -112 c2
-4 -4 -9 -15 -9 -11 -1 -17 2 -14 8 7 11 22 12 29 1z m-44 -27 c0 -21 -30 -31
-41 -14 -14 23 -11 29 16 29 16 0 25 -6 25 -15z m1474 -4 c3 -4 20 -11 38 -15
25 -5 30 -9 18 -16 -9 -6 -17 -5 -22 3 -6 9 -8 9 -8 0 0 -6 5 -15 12 -19 7 -5
4 -10 -10 -15 -13 -5 -19 -14 -16 -22 2 -7 -6 -24 -19 -38 -27 -28 -78 -107
-103 -161 -9 -20 -22 -34 -27 -31 -6 3 -7 1 -4 -4 4 -6 0 -24 -8 -39 -8 -16
-15 -33 -15 -37 0 -5 -21 -52 -47 -105 -26 -53 -51 -106 -54 -117 -6 -18 -7
-17 -8 5 -1 14 6 36 15 48 8 12 17 32 19 43 3 12 11 29 18 38 14 16 47 84 47
95 0 3 -4 6 -10 6 -5 0 -10 -6 -10 -14 0 -7 -7 -19 -15 -26 -8 -7 -15 -19 -15
-27 0 -8 -7 -21 -15 -29 -19 -20 -19 -22 10 76 14 46 25 91 25 99 0 9 13 29
30 44 22 21 28 35 24 52 -3 13 0 26 7 30 8 6 10 4 4 -5 -5 -8 -4 -11 3 -6 6 4
9 13 6 20 -6 17 65 121 81 120 8 -1 11 5 8 12 -9 25 28 57 41 35z m86 -60 c0
-11 5 -23 10 -26 6 -3 10 -25 10 -48 l0 -42 27 48 c17 31 29 43 34 35 4 -7 5
-16 2 -21 -3 -5 4 -15 16 -23 12 -9 19 -20 15 -25 -3 -6 -7 -23 -9 -37 -2 -15
-6 -38 -9 -52 l-7 -25 11 24 c16 38 20 21 12 -57 -6 -55 -14 -78 -33 -98 -42
-46 -152 -125 -166 -119 -8 2 -11 1 -8 -5 3 -5 -4 -14 -15 -20 -11 -6 -20 -7
-20 -3 0 4 -7 -3 -16 -15 -8 -12 -19 -22 -24 -22 -11 0 8 60 26 81 8 9 11 19
7 23 -4 3 -24 -28 -44 -70 -64 -132 -71 -117 -9 21 10 22 21 51 25 65 10 34
46 104 56 111 12 7 99 140 99 150 0 14 -33 48 -41 44 -4 -3 -3 11 1 30 4 19 6
36 4 38 -3 2 2 10 11 17 8 7 15 19 15 26 0 8 5 14 10 14 6 0 10 -9 10 -19z
m646 -64 c1 -9 -2 -15 -7 -11 -5 3 -7 9 -4 14 3 4 0 11 -5 13 -6 3 -5 4 1 3 7
-1 13 -10 15 -19z m-1648 -55 c14 3 17 -5 15 -49 -1 -29 2 -55 7 -58 11 -7 50
30 50 46 0 8 6 7 16 -2 15 -12 16 -11 9 11 -7 22 -6 23 7 12 13 -10 17 -10 22
4 4 9 9 14 12 11 10 -9 -95 -189 -135 -230 -20 -21 -49 -46 -66 -54 -21 -10
-26 -11 -17 -2 6 7 12 19 12 27 0 8 8 26 18 40 24 34 34 72 19 72 -6 0 -8 3
-5 6 4 3 17 0 30 -7 21 -11 21 -9 -7 27 l-30 39 27 -17 c33 -22 38 -22 38 -3
0 8 -4 15 -10 15 -5 0 -10 20 -10 44 0 47 -13 68 -24 40 -4 -9 -4 -26 -1 -38
5 -17 3 -17 -9 4 -18 29 -20 44 -6 35 6 -3 10 -2 10 4 0 5 -4 13 -10 16 -14 9
-12 43 3 48 7 2 13 -6 15 -20 2 -16 9 -23 20 -21z m-1094 22 c3 -8 2 -12 -4
-9 -6 3 -10 10 -10 16 0 14 7 11 14 -7z m2812 -6 c16 -13 35 -27 42 -33 8 -5
30 -24 49 -42 29 -26 31 -32 16 -35 -20 -4 -21 -3 -80 48 -24 20 -40 41 -36
47 4 6 0 8 -10 4 -11 -4 -14 -2 -10 9 4 10 0 12 -13 7 -12 -4 -15 -3 -10 5 10
17 19 15 52 -10z m-2636 8 c0 -3 -4 -8 -10 -11 -5 -3 -10 -1 -10 4 0 6 5 11
10 11 6 0 10 -2 10 -4z m25 -16 c3 -5 -1 -10 -10 -10 -9 0 -13 5 -10 10 3 6 8
10 10 10 2 0 7 -4 10 -10z m833 -65 c1 -30 -1 -55 -5 -55 -14 0 -30 67 -21 89
13 36 23 23 26 -34z m1202 46 c0 -6 -4 -13 -10 -16 -5 -3 -10 1 -10 9 0 9 5
16 10 16 6 0 10 -4 10 -9z m-388 -43 c-7 -7 -12 -8 -12 -2 0 14 12 26 19 19 2
-3 -1 -11 -7 -17z m-864 -28 c-1 -33 -3 -35 -22 -18 -10 10 -10 15 3 30 20 23
20 23 19 -12z m1041 -22 c-9 -17 -14 -19 -17 -8 -3 7 0 16 7 18 6 2 11 11 12
20 0 10 3 12 5 5 3 -7 0 -22 -7 -35z m-1046 -35 c-7 -2 -19 -2 -25 0 -7 3 -2
5 12 5 14 0 19 -2 13 -5z m-63 -44 c0 -5 -4 -9 -10 -9 -5 0 -10 7 -10 16 0 8
5 12 10 9 6 -3 10 -10 10 -16z m1335 -52 c-8 -13 -13 -27 -10 -30 3 -4 2 -5
-2 -2 -3 3 -13 -1 -22 -8 -8 -6 -2 5 13 26 31 41 45 50 21 14z m-80 -115 c1
-12 -4 -22 -10 -22 -18 0 -23 9 -18 31 7 26 26 19 28 -9z m79 -174 c1 -76 -2
-138 -6 -138 -5 0 -8 -7 -8 -15 0 -8 5 -15 10 -15 6 0 10 -9 10 -20 0 -11 -4
-20 -10 -20 -5 0 -10 9 -10 20 0 11 -3 20 -7 20 -14 0 -33 53 -34 94 0 32 -2
37 -9 21 -7 -15 -9 -16 -9 -4 -2 37 -61 26 -61 -11 0 -9 -14 -29 -31 -46 -17
-16 -47 -56 -66 -89 -20 -33 -41 -64 -48 -70 -6 -5 -33 -64 -59 -130 -68 -171
-67 -169 -61 -95 2 36 8 107 11 158 6 90 8 96 55 168 31 47 54 72 61 68 6 -4
8 -3 4 4 -6 10 57 92 92 120 9 6 13 12 9 12 -3 0 29 34 71 75 72 71 77 74 85
52 5 -12 10 -84 11 -159z m-109 -180 c-9 -29 -45 -68 -45 -49 0 17 32 71 43
71 5 0 5 -10 2 -22z m1 -85 c-10 -10 -19 5 -10 18 6 11 8 11 12 0 2 -7 1 -15
-2 -18z m173 -145 c1 -23 6 -38 14 -38 7 0 13 -18 15 -47 2 -26 7 -50 11 -53
16 -10 23 -159 10 -213 -11 -46 -72 -157 -91 -165 -5 -2 -8 -8 -8 -14 0 -15
-93 -128 -160 -196 -14 -14 -35 -39 -47 -56 -34 -45 -28 -27 31 91 29 59 64
131 76 158 22 51 44 101 74 167 18 40 21 72 7 64 -5 -4 -11 -2 -13 4 -1 5 -8
6 -14 2 -16 -11 -112 -156 -141 -214 -19 -38 -28 -47 -35 -37 -7 10 -8 9 -4
-6 4 -13 -11 -46 -46 -100 -28 -44 -64 -100 -80 -124 -15 -25 -28 -37 -28 -29
0 9 -5 18 -11 20 -8 3 -5 10 6 21 11 12 15 26 11 45 -3 15 -3 21 1 14 4 -10 9
-7 18 10 7 14 9 29 3 41 -13 26 5 79 43 129 57 73 103 123 111 120 5 -1 8 4 8
12 0 7 12 31 27 52 36 54 103 183 103 200 0 8 5 14 10 14 6 0 10 10 10 23 0
40 42 151 51 136 6 -10 11 -4 16 21 6 33 7 34 14 10 4 -14 7 -42 8 -62z m16
52 c3 -5 1 -10 -4 -10 -6 0 -11 5 -11 10 0 6 2 10 4 10 3 0 8 -4 11 -10z
m-1260 -308 c7 -4 2 -16 -12 -31 -18 -19 -23 -20 -23 -8 0 9 5 19 10 22 6 4 8
11 5 16 -7 11 6 12 20 1z m127 -57 c-2 -19 -9 -38 -14 -41 -7 -4 -8 6 -3 27
13 58 23 67 17 14z m-181 -48 c-10 -9 -11 -8 -5 6 3 10 9 15 12 12 3 -3 0 -11
-7 -18z m-610 -80 c-10 -9 -11 -8 -5 6 3 10 9 15 12 12 3 -3 0 -11 -7 -18z
m495 -36 c-3 -5 8 -14 24 -20 25 -8 32 -7 36 4 4 11 11 12 23 5 28 -14 95 -15
130 -1 17 8 34 11 38 7 3 -3 4 -7 2 -9 -16 -12 -175 -79 -199 -84 -17 -3 -33
-10 -36 -14 -13 -21 -22 -5 -29 46 -6 50 -2 75 11 75 3 0 3 -4 0 -9z m189 -1
c3 -5 -1 -10 -9 -10 -9 0 -16 5 -16 10 0 6 4 10 9 10 6 0 13 -4 16 -10z m3716
-22 c28 -35 23 -52 -22 -71 -61 -26 -74 -9 -42 58 19 41 37 44 64 13z m-4363
-123 c0 -16 -2 -15 -8 5 -4 14 -8 34 -8 45 0 16 2 15 8 -5 4 -14 8 -34 8 -45z
m-8 -38 c0 -5 -4 -5 -10 -2 -5 3 -10 14 -10 23 0 15 2 15 10 2 5 -8 10 -19 10
-23z m1480 -11 c0 -3 -4 -8 -10 -11 -5 -3 -10 -1 -10 4 0 6 5 11 10 11 6 0 10
-2 10 -4z m276 -198 c-25 -79 -55 -157 -66 -175 -10 -16 -10 -15 -5 4 4 15 0
25 -12 32 -10 6 -13 11 -6 11 7 0 10 6 7 14 -4 10 83 156 93 156 1 0 -4 -19
-11 -42z m1644 21 c0 -5 -5 -8 -11 -6 -6 1 -13 -9 -14 -22 -1 -14 -7 -27 -14
-29 -9 -3 -9 -7 0 -18 9 -11 9 -18 1 -26 -7 -7 -12 -19 -12 -28 0 -8 -7 -26
-16 -39 -22 -31 -35 -15 -40 52 -4 53 -3 56 37 95 37 37 69 46 69 21z m-1938
-287 c-7 -2 -10 -13 -6 -27 3 -14 -1 -38 -10 -56 -9 -18 -16 -38 -16 -46 0 -7
-13 -26 -28 -41 -16 -15 -31 -34 -35 -42 -4 -8 -18 -33 -32 -55 -13 -22 -31
-57 -40 -77 -10 -21 -21 -35 -26 -32 -6 3 -7 -6 -3 -22 5 -21 4 -25 -6 -19 -8
5 -11 4 -7 -1 3 -5 -3 -34 -13 -64 -10 -30 -22 -83 -26 -118 -7 -64 -18 -86
-28 -55 -14 46 -4 149 14 138 4 -3 10 10 13 28 2 17 14 55 25 82 30 71 35 89
33 99 -1 6 4 26 12 45 8 20 21 51 28 69 7 19 17 39 23 45 7 7 20 30 30 52 22
48 85 117 100 108 6 -4 6 -8 -2 -11z m-2427 -112 c3 -5 1 -10 -4 -10 -6 0 -11
5 -11 10 0 6 2 10 4 10 3 0 8 -4 11 -10z m4830 -16 c-49 -41 -74 -49 -30 -10
22 19 45 36 50 35 6 0 -3 -11 -20 -25z m1557 -14 c7 0 6 -5 -1 -14 -9 -11 -2
-15 41 -20 53 -7 88 -28 88 -51 0 -21 -28 -38 -52 -31 -34 8 -132 101 -123
116 4 6 14 9 22 6 8 -3 19 -6 25 -6z m-7552 -9 c0 -6 -4 -13 -10 -16 -5 -3
-10 1 -10 9 0 9 5 16 10 16 6 0 10 -4 10 -9z m1080 -1 c0 -5 -2 -10 -4 -10 -3
0 -8 5 -11 10 -3 6 -1 10 4 10 6 0 11 -4 11 -10z m-1110 -20 c0 -5 -5 -10 -11
-10 -5 0 -7 5 -4 10 3 6 8 10 11 10 2 0 4 -4 4 -10z m1200 -31 c0 -18 -2 -20
-15 -9 -13 11 -13 15 -3 21 18 12 18 12 18 -12z m35 -9 c3 -5 -1 -10 -10 -10
-9 0 -13 5 -10 10 3 6 8 10 10 10 2 0 7 -4 10 -10z m4695 7 c0 -2 -14 -16 -32
-33 -30 -28 -30 -18 1 18 13 16 31 24 31 15z m-2240 -11 c0 -3 -4 -8 -10 -11
-5 -3 -10 -1 -10 4 0 6 5 11 10 11 6 0 10 -2 10 -4z m-2500 -27 c10 -5 -1 -8
-33 -9 -41 0 -46 2 -35 15 13 14 37 12 68 -6z m2377 -121 c-3 -8 -6 -5 -6 6
-1 11 2 17 5 13 3 -3 4 -12 1 -19z m-2049 -1 c1 -4 2 -11 2 -15 0 -9 -131 -72
-151 -72 -9 0 -24 -7 -35 -15 -27 -20 -32 -19 -26 10 4 24 69 86 102 98 21 7
104 3 108 -6z m2052 -45 c-5 -9 -19 -28 -30 -42 l-21 -25 6 25 c10 37 34 72
45 65 7 -4 7 -12 0 -23z m-760 -46 c143 -24 146 -25 140 -65 -1 -9 4 -12 14
-8 9 4 16 3 16 -2 0 -5 -10 -12 -22 -15 -18 -6 -20 -9 -8 -14 18 -9 20 -53 2
-74 -8 -10 -10 -26 -6 -44 5 -19 4 -25 -5 -20 -6 4 -11 1 -11 -8 0 -9 4 -16 9
-16 14 0 22 29 15 57 -5 18 -3 24 5 19 25 -16 8 -96 -21 -96 -10 0 -17 -4 -13
-9 3 -5 1 -12 -5 -16 -5 -3 -10 -14 -10 -25 0 -10 -7 -20 -15 -24 -8 -3 -15
-11 -14 -18 0 -10 2 -10 6 0 7 17 28 15 44 -4 10 -13 10 -17 -1 -24 -7 -5 -11
-17 -7 -30 4 -17 3 -19 -9 -9 -17 14 -18 36 -2 41 6 2 8 9 5 16 -5 7 -15 4
-30 -11 -16 -15 -20 -26 -14 -35 7 -9 6 -17 -3 -25 -10 -9 -11 -9 -6 1 12 20
-8 14 -21 -8 -8 -12 -9 -21 -3 -25 17 -11 11 -25 -11 -25 -16 0 -19 -4 -14
-22 6 -17 4 -20 -9 -15 -17 7 -22 -8 -6 -18 18 -11 1 -23 -25 -17 -15 2 -25 0
-25 -7 0 -6 6 -11 13 -12 10 0 10 -2 0 -6 -7 -2 -13 -10 -13 -17 0 -15 -42
-36 -73 -36 -31 0 -49 -14 -42 -32 4 -10 14 -14 26 -11 10 3 19 0 19 -6 0 -6
-10 -11 -22 -11 -27 0 -55 -16 -46 -26 4 -3 2 -12 -5 -19 -9 -10 -14 -9 -24 4
-11 14 -12 14 -13 -6 0 -13 -8 -24 -20 -28 -11 -3 -20 -13 -20 -21 0 -8 -7
-14 -16 -14 -8 0 -12 5 -9 10 3 6 1 10 -4 10 -6 0 -11 5 -11 10 0 6 11 10 25
10 28 0 29 3 15 31 -8 14 -21 19 -53 19 -52 0 -77 -14 -59 -32 17 -17 15 -28
-6 -28 -10 0 -29 -12 -41 -26 -18 -21 -20 -28 -10 -35 11 -6 11 -11 1 -21 -9
-9 -12 -9 -12 4 0 9 -11 23 -25 32 -23 15 -26 15 -32 1 -4 -12 -13 -15 -30
-10 -20 5 -26 1 -30 -16 -5 -19 -11 -20 -47 -15 -23 4 -42 11 -44 16 -2 6 -10
10 -18 10 -8 0 -11 -6 -7 -16 8 -21 -13 -33 -57 -35 -31 -2 -32 -3 -7 -6 15
-2 25 -8 22 -13 -3 -5 -21 -6 -40 -3 -28 4 -35 2 -35 -11 0 -21 -9 -20 -32 1
-16 15 -22 15 -40 4 -18 -11 -20 -11 -15 3 7 17 -8 23 -17 7 -3 -5 -31 -7 -62
-4 -38 3 -54 1 -49 -6 3 -6 19 -11 35 -11 31 0 47 -14 29 -26 -6 -3 -34 -8
-62 -9 -43 -2 -48 -1 -34 10 19 14 12 25 -15 25 -10 0 -18 5 -18 11 0 5 8 10
18 9 26 -3 63 11 56 21 -9 15 -96 8 -90 -7 7 -18 -20 -25 -50 -14 -35 14 -44
12 -37 -6 3 -8 15 -14 27 -13 60 4 79 -14 27 -26 -20 -4 -28 -11 -24 -21 6
-15 2 -17 -21 -8 -8 3 -12 12 -9 20 3 8 -5 17 -20 23 -19 7 -24 15 -20 30 3
13 -3 25 -21 36 -14 10 -26 25 -26 35 0 10 -8 21 -17 23 -10 3 -4 5 14 6 24 1
31 5 27 16 -4 10 0 15 13 15 22 0 43 18 43 38 0 9 -10 12 -32 10 -18 -2 -33 2
-35 10 -3 6 2 12 11 12 31 0 15 20 -16 21 l-33 2 30 4 c17 3 34 9 40 14 12 12
48 12 40 -1 -3 -6 5 -10 19 -10 14 0 27 4 31 9 8 15 129 27 283 30 23 1 42 6
42 12 0 7 -48 10 -157 7 -87 -1 -169 1 -182 6 -16 6 -21 5 -17 -3 9 -14 -14
-14 -34 -1 -9 6 -11 13 -5 18 10 7 20 42 11 42 -15 0 -35 -14 -30 -21 3 -5 -2
-9 -10 -9 -8 0 -18 5 -22 12 -7 10 0 17 50 54 11 7 16 17 12 21 -4 4 -11 1
-16 -7 -6 -8 -10 -12 -10 -7 0 17 -2 23 -12 35 -8 9 -6 12 6 12 12 0 16 7 14
22 -2 11 3 23 10 25 6 3 12 -2 12 -11 0 -9 5 -16 10 -16 9 0 12 8 9 27 -1 7
31 27 46 28 6 0 9 10 7 23 -2 14 2 22 11 22 8 0 18 7 21 16 3 8 11 12 16 9 6
-4 18 -1 26 6 14 12 14 14 -3 27 -17 13 -17 14 0 26 9 7 17 18 17 25 0 6 5 11
11 11 7 0 9 -11 6 -30 -4 -16 -3 -30 2 -30 13 0 22 30 16 50 -8 24 31 34 45
12 8 -13 9 -9 5 16 -4 20 -3 32 4 32 6 0 11 -4 11 -10 0 -5 5 -10 11 -10 6 0
9 5 7 12 -6 18 44 58 58 47 12 -10 74 16 74 31 0 5 16 9 35 8 19 -1 38 2 42 5
3 4 -1 7 -10 7 -10 0 -17 5 -17 11 0 7 15 10 38 7 35 -3 38 -1 34 17 -4 15 -2
17 7 9 16 -14 101 13 101 32 0 17 27 19 32 2 3 -9 11 -9 35 1 20 8 47 10 76 6
25 -4 52 -3 59 1 7 5 34 9 60 9 26 0 50 4 54 8 11 11 72 8 80 -4 3 -6 9 -7 13
-2 5 8 49 31 61 32 3 0 43 -6 90 -13z m-804 -121 c-4 -24 -16 -30 -16 -7 0 12
4 22 9 22 5 0 8 -7 7 -15z m-40 -32 c-10 -10 -19 5 -10 18 6 11 8 11 12 0 2
-7 1 -15 -2 -18z m-1561 7 c4 -6 -10 -10 -35 -10 -25 0 -39 4 -35 10 3 6 19
10 35 10 16 0 32 -4 35 -10z m-68 -26 c-3 -3 -12 -4 -19 -1 -8 3 -5 6 6 6 11
1 17 -2 13 -5z m3 -24 c20 -6 14 -8 -28 -9 -33 -1 -51 3 -47 9 7 12 39 12 75
0z m2664 -26 c3 -8 2 -12 -4 -9 -6 3 -10 10 -10 16 0 14 7 11 14 -7z m-2444
-30 l35 -12 -35 -15 c-32 -14 -35 -14 -48 5 -9 13 -21 18 -34 15 -19 -5 -19
-5 -2 14 11 12 24 17 33 13 9 -4 32 -13 51 -20z m2400 -124 c0 -5 -2 -10 -4
-10 -3 0 -8 5 -11 10 -3 6 -1 10 4 10 6 0 11 -4 11 -10z m-3453 -36 c-3 -3
-12 -4 -19 -1 -8 3 -5 6 6 6 11 1 17 -2 13 -5z m5323 -44 c0 -14 37 -13 42 2
3 9 12 9 38 0 18 -7 49 -12 69 -12 20 0 60 -9 89 -20 29 -11 61 -20 72 -20 10
0 25 -6 32 -13 10 -12 15 -12 26 0 16 16 32 17 32 2 0 -5 5 -7 10 -4 6 3 10 1
10 -6 0 -7 3 -10 6 -6 10 10 64 -14 64 -30 0 -8 4 -12 10 -8 5 3 17 1 27 -4
10 -5 31 -12 46 -16 17 -3 25 -10 21 -17 -5 -7 -2 -9 9 -5 14 5 119 -39 125
-53 1 -4 13 -5 25 -3 12 2 31 -3 42 -11 18 -14 18 -15 3 -16 -10 0 -18 5 -18
10 0 6 -8 10 -17 9 -11 0 -13 -3 -5 -6 6 -2 10 -8 7 -13 -8 -14 32 -22 53 -11
10 5 24 6 31 1 17 -10 4 -33 -12 -24 -7 4 -8 3 -4 -2 5 -5 23 -9 39 -9 37 0
49 -22 16 -28 -17 -3 -15 -5 10 -6 18 0 35 -7 38 -14 5 -15 34 -19 34 -5 0 4
-4 8 -10 8 -5 0 -10 4 -10 10 0 5 13 1 30 -8 29 -16 43 -46 18 -37 -7 3 -26 1
-43 -4 -27 -8 -24 -9 25 -11 30 -1 49 -4 43 -7 -18 -7 -16 -23 2 -23 8 0 15
-7 15 -16 0 -9 8 -23 18 -30 16 -12 15 -13 -5 -14 -12 0 -25 5 -28 10 -3 6
-15 10 -26 10 -16 0 -19 -8 -20 -47 -1 -27 -2 -67 -3 -90 0 -24 3 -43 7 -43 5
0 5 -4 2 -10 -3 -5 -10 -36 -15 -67 -6 -34 -17 -63 -27 -70 -10 -8 -12 -13 -4
-13 7 0 10 -4 7 -8 -3 -5 -19 -7 -36 -4 -39 6 -39 -12 0 -34 35 -21 46 -42 25
-50 -15 -6 -45 -58 -45 -79 0 -7 -11 -16 -25 -19 -26 -7 -32 -20 -15 -31 17
-11 11 -23 -18 -33 -15 -5 -33 -21 -40 -36 -6 -14 -17 -37 -24 -51 -6 -14 -16
-25 -21 -25 -6 0 -19 -7 -29 -16 -17 -16 -19 -15 -33 19 -8 20 -15 42 -15 48
0 14 -42 92 -54 101 -5 3 -17 1 -27 -5 -13 -8 -28 -6 -61 6 -49 19 -94 22
-103 7 -3 -5 -12 -10 -20 -10 -23 0 -80 -44 -84 -65 -8 -42 -5 -50 16 -53 12
-2 24 -9 27 -17 6 -17 -75 -37 -85 -22 -4 6 -28 7 -53 5 -25 -3 -46 -2 -46 3
0 5 6 9 13 10 19 1 -26 18 -48 18 -11 -1 -14 -3 -7 -6 15 -6 16 -45 1 -60 -7
-7 -22 -8 -47 -1 -20 5 -45 9 -54 9 -9 0 -22 7 -29 15 -9 11 -8 14 7 15 14 0
11 3 -8 11 -16 5 -28 16 -28 24 0 8 -4 14 -10 14 -5 0 -10 -11 -10 -25 0 -14
3 -25 8 -25 7 0 34 -51 29 -56 -2 -2 -21 12 -42 31 -37 32 -85 49 -70 25 3 -5
-2 -10 -13 -10 -10 0 -19 7 -19 15 0 9 9 15 23 15 12 0 24 7 28 15 3 9 0 15
-8 15 -8 0 -16 -5 -18 -11 -2 -6 -12 -7 -27 -1 -20 7 -21 10 -8 15 34 13 8 53
-29 46 -24 -4 -44 2 -39 12 4 6 19 7 35 4 33 -7 47 7 24 25 -11 10 -18 10 -26
2 -17 -17 -45 -15 -52 3 -4 11 1 15 19 15 19 0 25 5 25 21 0 11 5 17 10 14 23
-14 29 7 8 25 -21 17 -25 17 -40 3 -10 -9 -18 -11 -18 -5 0 6 -15 20 -33 31
-19 11 -39 32 -45 46 -6 14 -18 25 -26 25 -14 0 -31 29 -22 38 6 6 75 -45 97
-72 12 -14 20 -17 33 -9 16 9 14 11 -14 23 -23 9 -30 18 -27 31 3 10 0 17 -5
16 -6 -1 -13 4 -15 11 -3 6 1 12 8 12 7 0 -9 14 -37 31 -27 18 -57 41 -66 53
-10 11 -22 27 -28 34 -6 7 -9 16 -6 20 9 14 -10 33 -27 26 -9 -3 -14 -10 -11
-15 3 -5 -2 -9 -10 -9 -9 0 -16 4 -16 9 0 5 -3 16 -6 25 -5 13 1 16 31 16 20
0 34 4 30 10 -3 5 -12 7 -21 3 -8 -3 -24 5 -37 19 -29 31 -54 41 -94 39 -36
-3 -46 17 -13 26 24 6 27 33 4 33 -8 0 -12 5 -9 10 3 6 -3 10 -14 10 -14 0
-19 5 -15 15 4 9 0 15 -10 15 -9 0 -16 5 -16 10 0 6 6 10 14 10 8 0 18 -4 21
-10 3 -5 29 -10 57 -10 45 0 49 2 37 16 -8 10 -23 14 -41 12 -16 -3 -33 1 -39
9 -6 7 -18 13 -27 13 -8 0 -32 5 -53 12 -32 9 -38 15 -37 35 2 15 7 22 16 18
9 -3 13 2 11 18 -2 12 0 28 5 36 5 8 4 16 -4 21 -8 5 -10 17 -6 34 4 15 10 24
15 22 5 -3 9 6 9 19 0 54 39 67 256 90 83 9 152 18 156 20 3 2 28 6 55 10 28
3 79 14 115 24 77 22 100 25 100 11z m-1565 -105 c-10 -19 -20 -33 -23 -30 -3
2 3 20 13 40 25 45 32 37 10 -10z m-1748 -51 c-3 -3 -12 -4 -19 -1 -8 3 -5 6
6 6 11 1 17 -2 13 -5z m1714 -17 c-10 -9 -11 -8 -5 6 3 10 9 15 12 12 3 -3 0
-11 -7 -18z m-1657 -12 c-4 -8 -12 -15 -19 -15 -7 0 -15 7 -19 15 -4 11 1 15
19 15 18 0 23 -4 19 -15z m894 -191 c1 -22 -2 -33 -8 -29 -6 4 -8 10 -5 15 3
5 1 11 -5 15 -14 9 -12 35 3 35 7 0 13 -15 15 -36z m-38 -4 c0 -5 -7 -10 -15
-10 -8 0 -15 5 -15 10 0 6 7 10 15 10 8 0 15 -4 15 -10z m1704 -35 c3 -8 1
-15 -3 -15 -5 0 -11 7 -15 15 -3 8 -1 15 3 15 5 0 11 -7 15 -15z m-414 1 c0
-10 -72 -140 -84 -151 -7 -7 -21 -43 -31 -80 -16 -60 -22 -70 -69 -104 -28
-21 -62 -41 -74 -45 -20 -7 -22 -5 -17 17 4 14 2 28 -4 31 -6 4 -11 13 -11 19
0 7 4 6 10 -3 10 -17 15 -14 24 18 5 15 3 24 -8 28 -17 6 -23 26 -7 22 5 -2
23 15 40 36 18 22 41 46 51 53 11 8 20 19 20 25 0 6 -7 5 -17 -3 -9 -8 -14 -9
-10 -2 4 6 1 14 -5 17 -7 3 1 3 18 1 31 -5 43 2 102 56 15 15 21 28 17 43 -5
15 -4 17 3 8 8 -12 12 -11 23 2 13 14 29 21 29 12z m-3702 -13 c-10 -2 -26 -2
-35 0 -10 3 -2 5 17 5 19 0 27 -2 18 -5z m5892 -68 c10 -12 9 -16 -5 -22 -16
-6 -15 -8 6 -16 16 -6 19 -11 10 -14 -11 -5 -11 -7 0 -14 34 -21 45 -199 13
-199 -11 0 -13 -10 -8 -39 5 -29 3 -39 -10 -44 -8 -3 -18 -2 -21 4 -4 5 -11 7
-16 4 -5 -4 -18 -4 -28 0 -14 4 -19 15 -19 38 0 18 3 36 6 41 6 10 14 104 13
150 0 16 3 34 7 40 4 6 7 25 7 41 0 43 22 57 45 30z m-2326 -17 c-3 -4 -9 -8
-15 -8 -5 0 -9 4 -9 8 0 5 7 9 15 9 8 0 12 -4 9 -9z m-3193 -21 c-10 -9 -11
-8 -5 6 3 10 9 15 12 12 3 -3 0 -11 -7 -18z m-273 -52 c-2 -1 -16 -5 -33 -9
l-30 -6 25 14 c14 8 28 12 33 9 5 -3 7 -6 5 -8z m3613 -48 c-10 -9 -11 -8 -5
6 3 10 9 15 12 12 3 -3 0 -11 -7 -18z m-475 -43 c22 8 26 -10 10 -49 -15 -36
-29 -49 -20 -17 3 9 -6 -3 -20 -28 -22 -39 -25 -42 -26 -20 0 20 -2 22 -11 10
-8 -11 -9 -6 -5 20 3 19 15 41 26 49 11 7 21 25 21 40 1 18 3 20 6 8 3 -11 11
-16 19 -13z m-3771 -26 c-5 -18 -8 -48 -7 -65 1 -38 0 -38 -53 -13 -22 11 -46
19 -52 20 -30 0 -2 33 60 71 48 29 61 25 52 -13z m4207 -20 c-7 -7 -12 -8 -12
-2 0 14 12 26 19 19 2 -3 -1 -11 -7 -17z m-2 -75 c-1 -16 -50 -63 -67 -64 -10
-1 1 -7 23 -14 59 -19 86 -34 78 -47 -4 -7 -9 -6 -15 3 -4 7 -11 11 -14 7 -3
-3 0 -12 8 -19 7 -8 12 -20 9 -27 -2 -7 1 -19 8 -27 17 -20 18 -148 2 -168 -7
-8 -12 -22 -10 -29 3 -16 -32 -88 -44 -88 -8 0 20 57 31 65 5 2 6 15 4 29 -3
13 0 27 6 30 14 9 15 86 1 86 -6 0 -8 -12 -5 -27 3 -16 2 -22 -1 -16 -4 9 -11
10 -25 3 -24 -13 -27 11 -4 34 20 19 19 26 -2 26 -20 0 -45 -44 -36 -66 3 -8
-1 -14 -9 -14 -8 0 -36 -22 -61 -50 -50 -54 -57 -58 -57 -35 0 8 -5 15 -11 15
-5 0 -8 4 -5 9 9 15 -4 40 -19 35 -7 -3 -16 3 -19 13 -4 10 -3 19 3 21 6 2 6
15 1 33 -5 17 -6 37 -3 45 3 8 0 14 -7 14 -19 0 121 149 174 185 16 11 34 25
40 32 13 14 26 17 26 6z m2150 -83 c0 -6 11 -15 24 -20 22 -8 23 -11 13 -34
-15 -33 -37 -33 -37 -2 0 14 -4 28 -10 31 -5 3 -10 13 -10 21 0 8 5 14 10 14
6 0 10 -5 10 -10z m-2430 -10 c0 -5 -4 -10 -10 -10 -5 0 -10 5 -10 10 0 6 5
10 10 10 6 0 10 -4 10 -10z m2415 -60 c3 -5 -1 -10 -10 -10 -9 0 -13 5 -10 10
3 6 8 10 10 10 2 0 7 -4 10 -10z m-768 -236 c-3 -3 -12 -4 -19 -1 -8 3 -5 6 6
6 11 1 17 -2 13 -5z m-307 -14 c0 -5 -4 -10 -10 -10 -5 0 -10 5 -10 10 0 6 5
10 10 10 6 0 10 -4 10 -10z m-1255 -220 c-10 -11 -23 -20 -28 -20 -6 0 -2 9 8
20 10 11 23 20 28 20 6 0 2 -9 -8 -20z m95 -20 c-6 -11 -8 -25 -5 -31 4 -5 2
-40 -5 -78 -13 -76 -24 -91 -117 -166 -59 -47 -74 -65 -55 -65 4 0 13 5 19 11
6 6 16 10 23 7 19 -6 -48 -74 -123 -125 -40 -26 -76 -52 -80 -58 -6 -6 -10 -6
-14 2 -3 9 -10 10 -23 3 -41 -22 -28 14 52 152 28 49 33 64 22 66 -16 4 -62
-42 -95 -93 -10 -16 -19 -24 -19 -17 0 7 12 29 27 48 22 30 24 37 12 45 -11 7
-12 11 -1 17 7 5 12 15 10 22 -2 8 2 14 9 15 6 0 20 9 30 21 32 36 88 71 106
66 10 -2 34 4 53 13 19 9 44 17 54 18 13 1 20 9 20 23 0 24 49 93 66 94 7 0
14 7 18 15 3 8 10 15 16 15 8 0 7 -6 0 -20z m-145 -10 c6 -9 -53 -45 -61 -37
-4 4 43 47 52 47 1 0 5 -4 9 -10z m-4195 -66 c0 -13 -35 -33 -57 -34 -30 0
-29 8 3 41 23 24 29 26 40 14 8 -7 14 -17 14 -21z m4120 16 c0 -9 -32 -30 -46
-30 -4 0 1 9 11 20 19 21 35 26 35 10z m8961 -393 c-13 -13 -26 -3 -16 12 3 6
11 8 17 5 6 -4 6 -10 -1 -17z m-8871 -53 c0 -8 -19 -35 -42 -60 -24 -25 -50
-59 -60 -75 -10 -19 -18 -25 -21 -17 -4 9 -8 10 -14 2 -4 -6 -23 -15 -40 -19
-18 -3 -33 -11 -33 -16 0 -5 -5 -9 -12 -9 -9 0 -9 3 0 12 7 7 12 16 12 20 0
19 -29 5 -74 -38 -27 -25 -51 -43 -54 -40 -2 3 0 12 6 19 7 8 9 17 5 21 -4 4
0 4 9 1 12 -5 14 -1 11 19 -4 19 -1 26 10 26 8 0 28 13 43 29 16 16 52 39 79
51 79 34 136 64 147 78 14 17 28 15 28 -4z m9344 -293 c8 -12 -3 -41 -15 -41
-5 0 -9 11 -9 25 0 25 14 34 24 16z m-9387 -218 c-3 -10 -5 -4 -5 12 0 17 2
24 5 18 2 -7 2 -21 0 -30z m-4257 -85 c22 -36 26 -82 10 -122 -13 -36 -33 -33
-65 10 -24 31 -26 39 -15 59 7 13 9 28 6 34 -10 15 12 51 29 51 9 0 24 -15 35
-32z m50 -138 c0 -5 -2 -10 -4 -10 -3 0 -8 5 -11 10 -3 6 -1 10 4 10 6 0 11
-4 11 -10z m35 -30 c-4 -12 -9 -19 -12 -17 -3 3 -2 15 2 27 4 12 9 19 12 17 3
-3 2 -15 -2 -27z m3856 -180 c-25 -69 -123 -165 -197 -191 -21 -8 -66 -29 -99
-47 -33 -17 -85 -44 -115 -60 -30 -15 -57 -31 -59 -36 -2 -4 -7 -2 -12 5 -7
11 -9 10 -9 -3 0 -10 -4 -18 -10 -18 -18 0 -10 16 23 48 17 17 42 45 55 62 13
16 28 30 34 30 6 0 21 10 33 23 86 88 179 167 191 163 8 -3 14 -1 14 4 0 4 12
11 28 14 15 4 50 18 77 31 28 13 53 25 57 25 3 0 -1 -23 -11 -50z m-340 -529
c6 10 9 11 9 1 0 -7 -7 -15 -15 -18 -10 -4 -14 -14 -10 -28 5 -15 4 -17 -3 -7
-8 11 -12 10 -23 -8 -8 -11 -22 -21 -32 -21 -10 0 -16 -4 -13 -9 3 -4 -3 -16
-14 -26 -15 -14 -20 -15 -20 -4 -1 10 -4 9 -14 -4 -15 -20 -82 -57 -103 -57
-7 0 -13 -3 -13 -8 0 -4 -17 -12 -37 -19 -34 -10 -36 -10 -19 3 11 8 26 14 33
14 7 0 10 6 7 15 -5 12 -9 12 -32 -1 -15 -9 -6 3 21 26 29 26 47 50 47 64 -1
20 -2 20 -14 4 -16 -21 -36 -23 -59 -5 -16 11 -16 13 2 24 17 11 19 10 15 -2
-9 -23 10 -18 35 9 13 14 20 29 17 35 -4 6 6 8 29 4 23 -4 35 -2 35 6 0 8 5 9
19 1 13 -7 22 -7 26 0 3 5 17 10 30 10 13 0 27 5 30 10 12 19 27 -2 20 -29 -6
-26 -6 -26 10 -4 8 12 15 26 14 30 -4 21 4 25 8 4 4 -19 7 -21 14 -10z m-251
-41 c0 -5 -4 -10 -10 -10 -5 0 -10 5 -10 10 0 6 5 10 10 10 6 0 10 -4 10 -10z
m-70 -64 c0 -7 -11 -16 -25 -18 -29 -6 -32 0 -7 18 22 17 32 17 32 0z m-1645
-35 c3 -5 1 -12 -5 -16 -5 -3 -10 1 -10 9 0 18 6 21 15 7z m1505 -251 c0 -5
-4 -10 -10 -10 -5 0 -10 5 -10 10 0 6 5 10 10 10 6 0 10 -4 10 -10z m-3706
-356 c40 -15 -5 -66 -73 -84 -40 -10 -121 -70 -95 -70 5 0 20 9 31 20 25 23
73 37 73 22 0 -6 -4 -13 -9 -16 -4 -3 -8 -16 -7 -28 2 -28 -49 -108 -69 -108
-9 0 -15 9 -15 21 0 17 -4 20 -24 15 -15 -4 -26 -1 -29 7 -4 9 -7 9 -18 0 -23
-22 -29 -14 -25 37 3 45 8 54 62 106 33 31 69 58 81 60 12 2 32 8 45 13 28 12
51 13 72 5z m5866 -1424 c0 -5 -7 -10 -15 -10 -8 0 -15 5 -15 10 0 6 7 10 15
10 8 0 15 -4 15 -10z m-2410 -164 c0 -11 -19 -15 -25 -6 -3 5 1 10 9 10 9 0
16 -2 16 -4z m95 -196 c3 -5 -1 -10 -9 -10 -9 0 -16 5 -16 10 0 6 4 10 9 10 6
0 13 -4 16 -10z m63 -24 c3 -12 -1 -17 -10 -14 -7 3 -15 13 -16 22 -3 12 1 17
10 14 7 -3 15 -13 16 -22z m212 -21 c-6 -30 -8 -33 -9 -13 -1 25 8 62 14 56 2
-2 -1 -21 -5 -43z m380 -257 c0 -5 -9 -4 -20 2 -21 11 -25 22 -13 34 8 7 33
-21 33 -36z m-1497 -60 c-33 -68 -63 -138 -63 -147 0 -6 -15 -44 -34 -83 -18
-40 -46 -107 -62 -147 -22 -61 -29 -71 -36 -55 -6 14 -7 10 -3 -13 2 -18 0
-33 -5 -33 -6 0 -10 -9 -10 -20 0 -11 -7 -20 -15 -20 -10 0 -13 9 -10 33 2 17
5 60 7 95 1 36 7 62 13 62 6 0 9 16 7 39 -3 30 1 44 22 66 24 26 29 43 30 117
1 14 5 30 9 34 4 5 5 1 1 -9 -3 -9 -1 -17 5 -17 5 0 15 18 21 40 12 45 34 56
24 13 -3 -16 -5 -38 -5 -50 0 -12 -4 -25 -9 -28 -6 -3 -10 -14 -10 -23 1 -28
28 27 35 72 5 24 20 51 44 76 38 39 63 38 44 -2z m-186 -190 c-3 -7 -5 -2 -5
12 0 14 2 19 5 13 2 -7 2 -19 0 -25z m110 -450 c-3 -8 -6 -5 -6 6 -1 11 2 17
5 13 3 -3 4 -12 1 -19z m-421 -234 c-3 -9 -6 -26 -6 -38 0 -17 -6 -22 -24 -22
-14 0 -22 4 -20 8 3 4 12 8 20 8 9 0 14 11 14 30 0 17 5 30 11 30 6 0 8 -7 5
-16z m-39 -92 c14 11 15 7 8 -32 -4 -25 -12 -50 -17 -57 -5 -7 -7 -16 -5 -20
5 -8 0 -43 -29 -203 -49 -270 -70 -350 -106 -418 -15 -30 -28 -61 -28 -69 0
-7 -6 -26 -13 -41 -11 -22 -11 -38 -2 -87 7 -33 13 -52 14 -42 0 9 6 17 12 17
5 0 7 -5 4 -10 -4 -6 -1 -18 6 -26 15 -18 22 -171 8 -180 -5 -3 -9 -12 -9 -20
0 -24 -23 -41 -58 -42 -21 0 -32 4 -32 13 0 7 -5 15 -11 17 -7 2 -7 23 1 68
16 94 28 178 35 235 3 28 12 91 20 140 16 99 20 127 35 260 10 87 23 141 41
177 7 14 5 16 -8 11 -13 -5 -15 -2 -10 18 4 13 7 31 7 39 0 13 1 13 11 0 8
-12 9 -9 5 13 -4 15 -2 27 4 27 5 0 10 14 10 30 0 23 5 30 19 30 16 0 20 11
26 68 5 48 10 62 16 47 7 -18 8 -17 8 6 1 28 13 47 19 29 3 -7 9 -7 19 2z
m-6697 -222 c0 -11 -7 -20 -15 -20 -8 0 -15 9 -15 20 0 11 7 20 15 20 8 0 15
-9 15 -20z m4134 -43 c-3 -9 -10 -17 -15 -17 -11 0 -12 34 -2 44 11 11 24 -9
17 -27z m2976 -172 c0 -9 -6 -12 -15 -9 -8 4 -12 10 -9 15 8 14 24 10 24 -6z
m-33 -218 c-3 -22 -4 -22 -14 3 -6 14 -8 31 -5 39 8 20 24 -14 19 -42z m-160
-259 c-3 -8 -6 -5 -6 6 -1 11 2 17 5 13 3 -3 4 -12 1 -19z m1193 -52 c0 -7 -7
-19 -15 -26 -8 -7 -15 -19 -15 -27 0 -26 -25 -8 -28 20 -2 19 1 27 12 27 9 0
16 5 16 10 0 6 7 10 15 10 8 0 15 -6 15 -14z m-325 -116 c-3 -5 -10 -10 -16
-10 -5 0 -9 5 -9 10 0 6 7 10 16 10 8 0 12 -4 9 -10z m-875 -47 c-1 -24 -2
-26 -11 -10 -5 9 -7 22 -4 27 10 17 15 11 15 -17z m-3 -85 c-3 -8 -6 -5 -6 6
-1 11 2 17 5 13 3 -3 4 -12 1 -19z m3 -28 c0 -5 -5 -10 -11 -10 -5 0 -7 5 -4
10 3 6 8 10 11 10 2 0 4 -4 4 -10z m456 -2 c4 -5 -14 -8 -39 -8 -26 0 -47 4
-47 8 0 10 76 10 86 0z"/>
<path d="M11860 13269 c0 -5 5 -7 10 -4 6 3 10 8 10 11 0 2 -4 4 -10 4 -5 0
-10 -5 -10 -11z"/>
<path d="M11641 13114 c-33 -28 -43 -52 -13 -33 17 11 57 59 48 59 -2 0 -18
-12 -35 -26z"/>
<path d="M11651 12764 c0 -11 3 -14 6 -6 3 7 2 16 -1 19 -3 4 -6 -2 -5 -13z"/>
<path d="M11528 12745 c-3 -14 -1 -25 3 -25 5 0 9 11 9 25 0 14 -2 25 -4 25
-2 0 -6 -11 -8 -25z"/>
<path d="M12408 12668 c5 -5 16 -8 23 -6 8 3 3 7 -10 11 -17 4 -21 3 -13 -5z"/>
<path d="M12717 12639 c7 -7 15 -10 18 -7 3 3 -2 9 -12 12 -14 6 -15 5 -6 -5z"/>
<path d="M12760 12621 c0 -4 11 -13 25 -19 14 -6 25 -8 25 -4 0 4 -11 12 -25
19 -14 6 -25 8 -25 4z"/>
<path d="M12880 12576 c19 -8 42 -15 50 -15 26 -1 -10 16 -50 23 l-35 6 35
-14z"/>
<path d="M11868 12483 c7 -3 16 -2 19 1 4 3 -2 6 -13 5 -11 0 -14 -3 -6 -6z"/>
<path d="M11880 11880 c-9 -6 -10 -10 -3 -10 6 0 15 5 18 10 8 12 4 12 -15 0z"/>
<path d="M11820 11849 c0 -5 5 -7 10 -4 6 3 10 8 10 11 0 2 -4 4 -10 4 -5 0
-10 -5 -10 -11z"/>
<path d="M13267 11611 c-4 -17 -3 -21 5 -13 5 5 8 16 6 23 -3 8 -7 3 -11 -10z"/>
<path d="M13155 11410 c-3 -5 -1 -10 4 -10 6 0 11 5 11 10 0 6 -2 10 -4 10 -3
0 -8 -4 -11 -10z"/>
<path d="M13500 11539 c0 -5 5 -7 10 -4 6 3 10 8 10 11 0 2 -4 4 -10 4 -5 0
-10 -5 -10 -11z"/>
<path d="M13456 11517 c3 -10 9 -15 12 -12 3 3 0 11 -7 18 -10 9 -11 8 -5 -6z"/>
<path d="M13482 11460 c0 -14 2 -19 5 -12 2 6 2 18 0 25 -3 6 -5 1 -5 -13z"/>
<path d="M13596 10354 c-3 -9 -6 -23 -6 -32 1 -15 3 -14 15 2 17 22 20 46 6
46 -5 0 -12 -7 -15 -16z"/>
<path d="M11678 8353 c6 -2 18 -2 25 0 6 3 1 5 -13 5 -14 0 -19 -2 -12 -5z"/>
<path d="M11807 8263 c-27 -27 25 -53 64 -33 22 12 22 13 4 26 -20 15 -57 19
-68 7z"/>
<path d="M11323 8244 c-3 -7 -2 -18 2 -24 9 -15 88 -12 110 4 18 13 18 14 -1
23 -28 15 -105 13 -111 -3z"/>
<path d="M11562 8253 c-23 -9 -1 -23 38 -23 41 0 61 14 34 24 -18 7 -53 7 -72
-1z"/>
<path d="M11936 8183 c-11 -11 -6 -23 9 -23 8 0 15 4 15 9 0 13 -16 22 -24 14z"/>
<path d="M11811 8144 c0 -11 3 -14 6 -6 3 7 2 16 -1 19 -3 4 -6 -2 -5 -13z"/>
<path d="M11272 8100 c-8 -13 -8 -20 -2 -20 6 0 13 7 17 15 9 24 -1 27 -15 5z"/>
<path d="M14620 8511 c0 -6 5 -13 10 -16 6 -3 10 1 10 9 0 9 -4 16 -10 16 -5
0 -10 -4 -10 -9z"/>
<path d="M14718 8473 c7 -3 16 -2 19 1 4 3 -2 6 -13 5 -11 0 -14 -3 -6 -6z"/>
<path d="M13978 8123 c7 -3 16 -2 19 1 4 3 -2 6 -13 5 -11 0 -14 -3 -6 -6z"/>
<path d="M13933 8083 c-19 -7 -16 -31 5 -37 52 -14 81 -16 87 -6 15 24 -58 58
-92 43z"/>
<path d="M14175 8029 c-10 -15 4 -25 43 -33 24 -4 34 -2 39 10 7 19 6 20 -39
28 -23 4 -39 2 -43 -5z"/>
<path d="M13940 8020 c0 -5 5 -10 11 -10 5 0 7 5 4 10 -3 6 -8 10 -11 10 -2 0
-4 -4 -4 -10z"/>
<path d="M14410 7982 c0 -15 24 -32 47 -32 26 0 31 25 7 34 -22 9 -54 7 -54
-2z"/>
<path d="M14046 7904 c-8 -20 -4 -25 11 -16 7 4 9 13 4 21 -6 10 -10 9 -15 -5z"/>
<path d="M14690 7905 c0 -10 10 -15 33 -15 30 1 31 1 13 15 -25 19 -46 19 -46
0z"/>
<path d="M14892 7848 c5 -15 37 -18 41 -3 1 6 -9 12 -22 13 -16 3 -22 -1 -19
-10z"/>
<path d="M15072 7788 c6 -16 55 -34 65 -24 10 10 -26 36 -50 36 -10 0 -17 -5
-15 -12z"/>
<path d="M15205 7731 c-7 -12 26 -31 51 -31 16 0 16 1 -1 20 -19 21 -40 26
-50 11z"/>
<path d="M14648 7433 c7 -3 16 -2 19 1 4 3 -2 6 -13 5 -11 0 -14 -3 -6 -6z"/>
<path d="M14710 7427 c0 -21 19 -30 52 -25 21 4 21 5 -7 13 -16 4 -33 13 -37
19 -5 7 -8 4 -8 -7z"/>
<path d="M14545 7410 c-3 -5 -1 -10 4 -10 6 0 11 5 11 10 0 6 -2 10 -4 10 -3
0 -8 -4 -11 -10z"/>
<path d="M15470 7766 c0 -2 7 -7 16 -10 8 -3 12 -2 9 4 -6 10 -25 14 -25 6z"/>
<path d="M15460 7730 c0 -5 7 -10 15 -10 8 0 15 5 15 10 0 6 -7 10 -15 10 -8
0 -15 -4 -15 -10z"/>
<path d="M13270 7650 c0 -5 5 -10 11 -10 5 0 7 5 4 10 -3 6 -8 10 -11 10 -2 0
-4 -4 -4 -10z"/>
<path d="M13273 7565 c0 -22 2 -30 4 -17 2 12 2 30 0 40 -3 9 -5 -1 -4 -23z"/>
<path d="M12178 5083 c7 -3 16 -2 19 1 4 3 -2 6 -13 5 -11 0 -14 -3 -6 -6z"/>
<path d="M12156 4984 c-9 -24 -4 -24 18 -3 16 16 17 19 4 19 -9 0 -19 -7 -22
-16z"/>
<path d="M10720 1880 c0 -5 7 -7 15 -4 8 4 15 8 15 10 0 2 -7 4 -15 4 -8 0
-15 -4 -15 -10z"/>
<path d="M10356 1241 c-4 -7 -5 -15 -2 -18 9 -9 19 4 14 18 -4 11 -6 11 -12 0z"/>
<path d="M10324 1189 c-3 -6 -2 -15 3 -20 5 -5 9 -1 10 11 2 22 -2 25 -13 9z"/>
<path d="M10292 1080 c0 -14 2 -19 5 -12 2 6 2 18 0 25 -3 6 -5 1 -5 -13z"/>
<path d="M11855 2490 c-3 -5 -1 -10 4 -10 6 0 11 5 11 10 0 6 -2 10 -4 10 -3
0 -8 -4 -11 -10z"/>
<path d="M13470 2309 c0 -5 5 -7 10 -4 6 3 10 8 10 11 0 2 -4 4 -10 4 -5 0
-10 -5 -10 -11z"/>
<path d="M10937 2041 c-4 -17 -3 -21 5 -13 5 5 8 16 6 23 -3 8 -7 3 -11 -10z"/>
<path d="M14031 2044 c0 -11 3 -14 6 -6 3 7 2 16 -1 19 -3 4 -6 -2 -5 -13z"/>
<path d="M13650 2010 c1 -39 58 -292 63 -283 4 6 -3 50 -14 99 -11 49 -23 109
-26 134 -5 42 -23 83 -23 50z"/>
<path d="M10900 1910 c0 -11 2 -20 4 -20 2 0 6 9 9 20 3 11 1 20 -4 20 -5 0
-9 -9 -9 -20z"/>
<path d="M10882 1840 c0 -14 2 -19 5 -12 2 6 2 18 0 25 -3 6 -5 1 -5 -13z"/>
<path d="M13711 1700 c0 -8 7 -31 15 -50 l14 -35 -6 40 c-5 38 -25 75 -23 45z"/>
<path d="M13742 1585 c0 -16 2 -22 5 -12 2 9 2 23 0 30 -3 6 -5 -1 -5 -18z"/>
<path d="M13762 1490 c0 -14 2 -19 5 -12 2 6 2 18 0 25 -3 6 -5 1 -5 -13z"/>
<path d="M13780 1419 c0 -3 14 -71 31 -150 16 -79 41 -198 55 -264 13 -66 22
-95 19 -65 -7 63 -31 192 -50 265 -7 28 -13 57 -14 65 -1 44 -39 182 -41 149z"/>
<path d="M11510 1171 c-8 -6 -17 -8 -21 -5 -13 8 -19 -13 -33 -118 -22 -153
-31 -308 -18 -308 12 0 42 72 42 100 0 11 5 20 10 20 6 0 10 26 10 59 0 33 4
62 8 65 5 3 7 33 6 68 -2 35 1 78 6 96 4 17 8 32 7 32 -1 0 -9 -4 -17 -9z"/>
<path d="M13902 845 c0 -16 2 -22 5 -12 2 9 2 23 0 30 -3 6 -5 -1 -5 -18z"/>
<path d="M13912 790 c0 -14 2 -19 5 -12 2 6 2 18 0 25 -3 6 -5 1 -5 -13z"/>
<path d="M13090 382 l2 -382 31 0 c27 1 30 2 16 13 -21 16 -27 95 -35 457 -3
157 -8 287 -11 290 -2 2 -3 -168 -3 -378z"/>
<path d="M15487 470 c9 -53 24 -83 17 -35 -4 22 -10 47 -15 55 -5 9 -6 1 -2
-20z"/>
<path d="M14267 452 c-4 -5 -2 -22 3 -38 9 -30 88 -254 124 -357 l21 -57 45 1
c38 1 40 2 16 8 -25 5 -32 15 -48 61 -10 30 -21 62 -25 70 -3 8 -5 18 -5 23 1
4 -2 7 -8 7 -5 0 -10 10 -10 23 0 12 -6 31 -13 42 -7 11 -26 54 -41 95 -42
111 -53 133 -59 122z"/>
<path d="M15521 314 c0 -11 3 -14 6 -6 3 7 2 16 -1 19 -3 4 -6 -2 -5 -13z"/>
<path d="M15531 264 c0 -11 3 -14 6 -6 3 7 2 16 -1 19 -3 4 -6 -2 -5 -13z"/>
<path d="M15540 221 c0 -6 4 -13 10 -16 6 -3 7 1 4 9 -7 18 -14 21 -14 7z"/>
<path d="M15567 102 c5 -64 4 -74 -13 -87 -18 -13 -16 -14 19 -15 42 0 42 -6
6 115 l-18 60 6 -73z"/>
<path d="M11120 90 c0 -5 5 -10 11 -10 5 0 7 5 4 10 -3 6 -8 10 -11 10 -2 0
-4 -4 -4 -10z"/>
</g>
</svg>
